<?xml version="1.0" encoding="UTF-8"?>
<svg xmlns="http://www.w3.org/2000/svg" xmlns:xlink="http://www.w3.org/1999/xlink" width="30pt" height="30pt" viewBox="0 0 30 30" version="1.1">
<g id="surface1">
<path style=" stroke:none;fill-rule:nonzero;fill:rgb(0%,0%,0%);fill-opacity:1;" d="M 26.351562 6.304688 L 25.957031 5.90625 L 20.734375 0.683594 C 20.734375 0.683594 20.734375 0.683594 20.730469 0.683594 L 20.335938 0.285156 C 20.15625 0.105469 19.902344 0 19.648438 0 L 4.636719 0 C 4.023438 0 3.363281 0.472656 3.363281 1.511719 L 3.363281 28.964844 C 3.363281 29.398438 3.796875 29.820312 4.3125 29.953125 C 4.339844 29.960938 4.363281 29.96875 4.390625 29.976562 C 4.472656 29.992188 4.554688 30 4.636719 30 L 25.363281 30 C 25.445312 30 25.527344 29.992188 25.609375 29.976562 C 25.636719 29.96875 25.660156 29.960938 25.6875 29.953125 C 26.203125 29.820312 26.636719 29.398438 26.636719 28.964844 L 26.636719 7.230469 C 26.636719 6.835938 26.589844 6.542969 26.351562 6.304688 Z M 21.984375 10.863281 C 21.984375 14.570312 18.964844 17.585938 15.257812 17.585938 C 11.550781 17.585938 8.535156 14.570312 8.535156 10.863281 C 8.535156 7.15625 11.550781 4.136719 15.257812 4.136719 C 16.757812 4.136719 18.21875 4.644531 19.398438 5.566406 L 19.398438 7.242188 L 20.921875 7.242188 C 21.617188 8.324219 21.984375 9.570312 21.984375 10.863281 Z M 21.195312 6.207031 L 20.429688 6.207031 L 20.429688 1.84375 L 24.792969 6.207031 Z M 4.636719 28.964844 C 4.597656 28.964844 4.566406 28.953125 4.535156 28.941406 C 4.453125 28.902344 4.398438 28.820312 4.398438 28.726562 L 4.398438 21.207031 L 25.601562 21.207031 L 25.601562 28.726562 C 25.601562 28.820312 25.546875 28.902344 25.464844 28.941406 C 25.433594 28.953125 25.402344 28.964844 25.363281 28.964844 Z M 4.398438 20.171875 L 4.398438 1.511719 C 4.398438 1.402344 4.414062 1.035156 4.636719 1.035156 L 19.425781 1.035156 C 19.410156 1.101562 19.398438 1.167969 19.398438 1.238281 L 19.398438 4.3125 C 18.164062 3.53125 16.730469 3.101562 15.257812 3.101562 C 10.980469 3.101562 7.5 6.582031 7.5 10.863281 C 7.5 15.140625 10.980469 18.621094 15.257812 18.621094 C 19.535156 18.621094 23.015625 15.140625 23.015625 10.863281 C 23.015625 9.585938 22.703125 8.355469 22.113281 7.242188 L 25.402344 7.242188 C 25.46875 7.242188 25.539062 7.226562 25.601562 7.210938 C 25.601562 7.21875 25.601562 7.222656 25.601562 7.230469 L 25.601562 20.171875 Z M 4.398438 20.171875 "/>
<path style=" stroke:none;fill-rule:nonzero;fill:rgb(0%,0%,0%);fill-opacity:1;" d="M 10.5625 26.28125 L 9.011719 22.71875 L 8.152344 22.71875 L 8.152344 27.929688 L 9.011719 27.929688 L 9.011719 24.34375 L 10.1875 27.246094 L 10.9375 27.246094 L 12.101562 24.34375 L 12.101562 27.929688 L 12.964844 27.929688 L 12.964844 22.71875 L 12.101562 22.71875 Z M 10.5625 26.28125 "/>
<path style=" stroke:none;fill-rule:nonzero;fill:rgb(0%,0%,0%);fill-opacity:1;" d="M 17 23.144531 C 16.828125 23.003906 16.632812 22.894531 16.417969 22.824219 C 16.199219 22.753906 15.980469 22.71875 15.761719 22.71875 L 14.261719 22.71875 L 14.261719 27.929688 L 15.109375 27.929688 L 15.109375 26.050781 L 15.738281 26.050781 C 16.011719 26.050781 16.261719 26.011719 16.488281 25.929688 C 16.714844 25.851562 16.90625 25.738281 17.066406 25.589844 C 17.226562 25.445312 17.351562 25.265625 17.441406 25.050781 C 17.53125 24.835938 17.578125 24.597656 17.578125 24.332031 C 17.578125 24.082031 17.523438 23.855469 17.417969 23.65625 C 17.3125 23.457031 17.171875 23.285156 17 23.144531 Z M 16.679688 24.867188 C 16.625 25.007812 16.558594 25.121094 16.472656 25.199219 C 16.390625 25.28125 16.296875 25.339844 16.195312 25.375 C 16.09375 25.410156 15.992188 25.425781 15.886719 25.425781 L 15.109375 25.425781 L 15.109375 23.363281 L 15.746094 23.363281 C 15.960938 23.363281 16.136719 23.398438 16.269531 23.464844 C 16.402344 23.535156 16.503906 23.617188 16.578125 23.71875 C 16.648438 23.820312 16.699219 23.925781 16.722656 24.039062 C 16.746094 24.148438 16.757812 24.246094 16.757812 24.332031 C 16.757812 24.542969 16.730469 24.722656 16.679688 24.867188 Z M 16.679688 24.867188 "/>
<path style=" stroke:none;fill-rule:nonzero;fill:rgb(0%,0%,0%);fill-opacity:1;" d="M 21.28125 22.71875 L 20.417969 22.71875 L 18.164062 26.042969 L 18.164062 26.714844 L 20.417969 26.714844 L 20.417969 27.929688 L 21.28125 27.929688 L 21.28125 26.714844 L 21.828125 26.714844 L 21.828125 26.042969 L 21.28125 26.042969 Z M 20.421875 26.042969 L 18.921875 26.042969 L 20.417969 23.710938 L 20.417969 26.042969 Z M 20.421875 26.042969 "/>
<path style=" stroke:none;fill-rule:nonzero;fill:rgb(0%,0%,0%);fill-opacity:1;" d="M 19.15625 10.425781 L 13.46875 6.804688 C 13.308594 6.703125 13.105469 6.695312 12.941406 6.789062 C 12.773438 6.878906 12.671875 7.050781 12.671875 7.242188 L 12.671875 14.484375 C 12.671875 14.671875 12.773438 14.84375 12.941406 14.9375 C 13.019531 14.980469 13.105469 15 13.191406 15 C 13.285156 15 13.382812 14.972656 13.46875 14.917969 L 19.15625 11.296875 C 19.304688 11.203125 19.398438 11.039062 19.398438 10.863281 C 19.398438 10.683594 19.304688 10.519531 19.15625 10.425781 Z M 13.707031 13.539062 L 13.707031 8.183594 L 17.914062 10.863281 Z M 13.707031 13.539062 "/>
</g>
</svg>
