<?xml version="1.0" encoding="UTF-8"?>
<svg xmlns="http://www.w3.org/2000/svg" xmlns:xlink="http://www.w3.org/1999/xlink" width="30pt" height="30pt" viewBox="0 0 30 30" version="1.1">
<g id="surface1">
<path style=" stroke:none;fill-rule:nonzero;fill:rgb(0%,0%,0%);fill-opacity:1;" d="M 25.015625 30 L 5.011719 30 C 4.738281 30 4.515625 29.777344 4.515625 29.5 L 4.515625 0.5 C 4.515625 0.226562 4.738281 0.00390625 5.011719 0.00390625 L 20.507812 0.00390625 C 20.644531 0.00390625 20.765625 0.0546875 20.859375 0.148438 L 25.359375 4.648438 C 25.453125 4.742188 25.507812 4.871094 25.507812 5 L 25.507812 29.496094 C 25.511719 29.777344 25.289062 30 25.015625 30 Z M 5.515625 29 L 24.515625 29 L 24.515625 5.210938 L 20.308594 1.003906 L 5.515625 1.003906 Z M 5.515625 29 "/>
<path style=" stroke:none;fill-rule:nonzero;fill:rgb(0%,0%,0%);fill-opacity:1;" d="M 25.015625 5.503906 L 20.515625 5.503906 C 20.238281 5.503906 20.015625 5.28125 20.015625 5.007812 L 20.015625 0.5 C 20.015625 0.300781 20.140625 0.113281 20.328125 0.0390625 C 20.515625 -0.0390625 20.730469 0.00390625 20.871094 0.148438 L 25.371094 4.648438 C 25.511719 4.789062 25.558594 5.007812 25.484375 5.195312 C 25.394531 5.378906 25.214844 5.503906 25.015625 5.503906 Z M 21.011719 4.503906 L 23.808594 4.503906 L 21.011719 1.707031 Z M 21.011719 4.503906 "/>
<path style=" stroke:none;fill-rule:nonzero;fill:rgb(0%,0%,0%);fill-opacity:1;" d="M 25.015625 30 L 5.011719 30 C 4.738281 30 4.515625 29.777344 4.515625 29.5 L 4.515625 20.503906 C 4.515625 20.226562 4.738281 20.003906 5.011719 20.003906 L 25.007812 20.003906 C 25.285156 20.003906 25.507812 20.226562 25.507812 20.503906 L 25.507812 29.5 C 25.511719 29.777344 25.289062 30 25.015625 30 Z M 5.515625 29 L 24.515625 29 L 24.515625 21 L 5.515625 21 Z M 5.515625 29 "/>
<path style=" stroke:none;fill-rule:nonzero;fill:rgb(0%,0%,0%);fill-opacity:1;" d="M 8.011719 28.003906 C 7.734375 28.003906 7.511719 27.78125 7.511719 27.503906 L 7.511719 22.5 C 7.511719 22.226562 7.734375 22.003906 8.011719 22.003906 C 8.285156 22.003906 8.507812 22.226562 8.507812 22.5 L 8.507812 27.5 C 8.515625 27.773438 8.285156 28.003906 8.011719 28.003906 Z M 8.011719 28.003906 "/>
<path style=" stroke:none;fill-rule:nonzero;fill:rgb(0%,0%,0%);fill-opacity:1;" d="M 22.015625 23 L 19.015625 23 C 18.738281 23 18.515625 22.777344 18.515625 22.5 C 18.515625 22.226562 18.738281 22.003906 19.015625 22.003906 L 22.015625 22.003906 C 22.289062 22.003906 22.511719 22.226562 22.511719 22.5 C 22.511719 22.777344 22.289062 23 22.015625 23 Z M 22.015625 23 "/>
<path style=" stroke:none;fill-rule:nonzero;fill:rgb(0%,0%,0%);fill-opacity:1;" d="M 22.015625 25.5 L 19.015625 25.5 C 18.738281 25.5 18.515625 25.277344 18.515625 25.003906 C 18.515625 24.726562 18.738281 24.503906 19.015625 24.503906 L 22.015625 24.503906 C 22.289062 24.503906 22.511719 24.726562 22.511719 25.003906 C 22.511719 25.277344 22.289062 25.5 22.015625 25.5 Z M 22.015625 25.5 "/>
<path style=" stroke:none;fill-rule:nonzero;fill:rgb(0%,0%,0%);fill-opacity:1;" d="M 19.015625 28.003906 C 18.738281 28.003906 18.515625 27.78125 18.515625 27.503906 L 18.515625 22.5 C 18.515625 22.226562 18.738281 22.003906 19.015625 22.003906 C 19.289062 22.003906 19.511719 22.226562 19.511719 22.5 L 19.511719 27.5 C 19.511719 27.773438 19.289062 28.003906 19.015625 28.003906 Z M 19.015625 28.003906 "/>
<path style=" stroke:none;fill-rule:nonzero;fill:rgb(0%,0%,0%);fill-opacity:1;" d="M 20.925781 12.957031 C 20.730469 12.585938 20.257812 12.40625 19.476562 12.40625 C 19.019531 12.40625 18.457031 12.464844 17.800781 12.582031 C 16.886719 11.625 15.9375 10.230469 15.265625 8.859375 C 15.371094 8.421875 15.46875 7.976562 15.546875 7.53125 C 15.632812 7.007812 15.738281 6.410156 15.628906 5.886719 C 15.582031 5.671875 15.457031 5.484375 15.316406 5.328125 C 15.195312 5.195312 15.023438 5.007812 14.824219 5.007812 C 14.71875 5.007812 14.433594 5.054688 14.320312 5.085938 C 14.035156 5.183594 13.882812 5.40625 13.757812 5.683594 C 13.40625 6.5 13.886719 7.882812 14.386719 8.953125 C 13.957031 10.625 13.25 12.621094 12.5 14.246094 C 10.613281 15.101562 9.609375 15.9375 9.515625 16.742188 C 9.480469 17.035156 9.550781 17.460938 10.074219 17.84375 C 10.214844 17.949219 10.382812 18 10.554688 18 C 10.988281 18 11.433594 17.671875 11.941406 16.964844 C 12.3125 16.449219 12.714844 15.746094 13.132812 14.871094 C 14.46875 14.296875 16.113281 13.777344 17.53125 13.484375 C 18.316406 14.226562 19.027344 14.609375 19.628906 14.609375 C 20.074219 14.609375 20.457031 14.402344 20.738281 14.023438 C 21.023438 13.625 21.089844 13.265625 20.925781 12.957031 Z M 10.566406 17.167969 C 10.332031 16.992188 10.347656 16.875 10.347656 16.828125 C 10.378906 16.554688 10.8125 16.066406 11.878906 15.480469 C 11.074219 16.953125 10.640625 17.144531 10.566406 17.167969 Z M 14.65625 5.890625 C 14.679688 5.886719 15.175781 6.429688 14.703125 7.472656 C 13.992188 6.757812 14.601562 5.90625 14.65625 5.890625 Z M 13.625 13.777344 C 14.128906 12.585938 14.601562 11.273438 14.953125 10.054688 C 15.511719 11.046875 16.183594 12.011719 16.859375 12.785156 C 15.796875 13.027344 14.667969 13.378906 13.625 13.777344 Z M 20.050781 13.542969 C 19.898438 13.753906 19.566406 13.757812 19.449219 13.757812 C 19.183594 13.757812 19.085938 13.601562 18.675781 13.296875 C 19.007812 13.253906 19.324219 13.242188 19.578125 13.242188 C 20.023438 13.242188 20.105469 13.308594 20.164062 13.34375 C 20.15625 13.371094 20.128906 13.4375 20.050781 13.542969 Z M 20.050781 13.542969 "/>
<path style=" stroke:none;fill-rule:nonzero;fill:rgb(0%,0%,0%);fill-opacity:1;" d="M 9.511719 26 L 8.011719 26 C 7.734375 26 7.511719 25.777344 7.511719 25.5 L 7.511719 22.5 C 7.511719 22.226562 7.734375 22.003906 8.011719 22.003906 L 9.511719 22.003906 C 10.613281 22.003906 11.507812 22.898438 11.507812 24 C 11.515625 25.101562 10.617188 26 9.511719 26 Z M 8.515625 25.003906 L 9.515625 25.003906 C 10.066406 25.003906 10.519531 24.550781 10.519531 24 C 10.519531 23.449219 10.066406 23 9.515625 23 L 8.515625 23 Z M 8.515625 25.003906 "/>
<path style=" stroke:none;fill-rule:nonzero;fill:rgb(0%,0%,0%);fill-opacity:1;" d="M 14.011719 28.003906 L 13.511719 28.003906 C 13.238281 28.003906 13.015625 27.78125 13.015625 27.503906 L 13.015625 22.5 C 13.015625 22.226562 13.238281 22.003906 13.511719 22.003906 L 14.011719 22.003906 C 15.664062 22.003906 17.011719 23.351562 17.011719 25.003906 C 17.011719 26.65625 15.667969 28.003906 14.011719 28.003906 Z M 14.011719 23 L 14.011719 27 C 15.113281 27 16.007812 26.105469 16.007812 25.003906 C 16.007812 23.902344 15.117188 23 14.011719 23 Z M 14.011719 23 "/>
</g>
</svg>
